<?xml version="1.0" encoding="UTF-8" standalone="no"?>
<!DOCTYPE svg PUBLIC "-//W3C//DTD SVG 1.1//EN" "http://www.w3.org/Graphics/SVG/1.1/DTD/svg11.dtd">
<svg width="100%" height="100%" viewBox="0 0 200 200" version="1.1" xmlns="http://www.w3.org/2000/svg" xmlns:xlink="http://www.w3.org/1999/xlink" xml:space="preserve" xmlns:serif="http://www.serif.com/" style="fill-rule:evenodd;clip-rule:evenodd;stroke-linecap:round;stroke-linejoin:round;stroke-miterlimit:0;">
    <g clip-path="url(#_clip1)">
        <g transform="matrix(1.68961,0,0,1.68961,-82.7736,-88.143)">
            <circle cx="108.175" cy="111.353" r="50.307" style="fill:white;stroke:black;stroke-width:0.3px;"/>
        </g>
    </g>
    <g transform="matrix(4.10714,0,0,4.10714,-2.67857,-2.67857)">
        <g id="图层1">
            <path d="M25,0.652C11.554,0.652 0.652,11.554 0.652,25C0.652,38.446 11.554,49.348 25,49.348C38.446,49.348 49.348,38.446 49.348,25C49.348,11.554 38.446,0.652 25,0.652ZM34.685,30.696C35.576,31.587 35.576,33.033 34.685,33.924C33.793,34.815 32.348,34.815 31.457,33.924L25,27.467L18.543,33.924C17.652,34.815 16.207,34.815 15.315,33.924C14.424,33.033 14.424,31.587 15.315,30.696L21.772,24.239L15.315,17.783C14.424,16.891 14.424,15.446 15.315,14.554C16.207,13.663 17.652,13.663 18.543,14.554L25,21.011L31.457,14.554C32.348,13.663 33.793,13.663 34.685,14.554C35.576,15.446 35.576,16.891 34.685,17.783L28.228,24.239L34.685,30.696Z" style="fill:rgba(81,81,81,1);fill-rule:nonzero;"/>
        </g>
    </g>
</svg>
