<svg t="1622390734018" class="icon" viewBox="0 0 1024 1024" version="1.1" xmlns="http://www.w3.org/2000/svg" p-id="922" width="20" height="20"><path d="M512 13.35652174C236.63304348 13.35652174 13.35652174 236.63304348 13.35652174 512s223.27652174 498.64347826 498.64347826 498.64347826 498.64347826-223.27652174 498.64347826-498.64347826S787.36695652 13.35652174 512 13.35652174z m198.34434783 615.29043479c18.25391304 18.25391304 18.25391304 47.86086957 0 66.1147826s-47.86086957 18.25391304-66.11478261 0L512 562.53217392 379.77043478 694.76173913c-18.25391304 18.25391304-47.86086957 18.25391304-66.11478261 0s-18.25391304-47.86086957 0-66.1147826L445.88521739 496.41739131 313.65565217 364.18782609c-18.25391304-18.25391304-18.25391304-47.86086957 0-66.11478261s47.86086957-18.25391304 66.11478261 0L512 430.3026087l132.22956522-132.22956522c18.25391304-18.25391304 47.86086957-18.25391304 66.11478261 0s18.25391304 47.86086957 0 66.11478261L578.11478261 496.41739131l132.22956522 132.22956522z" fill="#515151" p-id="923"></path></svg>