<?xml version="1.0" standalone="no"?><!DOCTYPE svg PUBLIC "-//W3C//DTD SVG 1.1//EN" "http://www.w3.org/Graphics/SVG/1.1/DTD/svg11.dtd"><svg class="icon" width="50px" height="50.00px" viewBox="0 0 1024 1024" version="1.1" xmlns="http://www.w3.org/2000/svg"><path d="M919.3 64.2h-816c-22.1 0-40 17.9-40 40v816c0 22.1 17.9 40 40 40h816c22.1 0 40-17.9 40-40v-816c0-22.1-17.9-40-40-40z m-88.1 448c0 35.2-28.8 63.9-63.9 63.9H575.6v191.8c0 35.2-28.8 63.9-63.9 63.9-35.2 0-63.9-28.8-63.9-63.9V576.1H256c-35.2 0-63.9-28.8-63.9-63.9 0-35.2 28.8-63.9 63.9-63.9h191.8V256.5c0-35.2 28.8-63.9 63.9-63.9 35.2 0 63.9 28.8 63.9 63.9v191.8h191.8c35.1 0 63.8 28.7 63.8 63.9z" fill="#bfbfbf" /></svg>